<?xml version="1.0" encoding="UTF-8" standalone="no"?>
<svg
   xmlns:dc="http://purl.org/dc/elements/1.1/"
   xmlns:cc="http://creativecommons.org/ns#"
   xmlns:rdf="http://www.w3.org/1999/02/22-rdf-syntax-ns#"
   xmlns:svg="http://www.w3.org/2000/svg"
   xmlns="http://www.w3.org/2000/svg"
   xmlns:sodipodi="http://sodipodi.sourceforge.net/DTD/sodipodi-0.dtd"
   xmlns:inkscape="http://www.inkscape.org/namespaces/inkscape"
   width="205.21288mm"
   height="40.752213mm"
   viewBox="0 0 205.21288 40.752213"
   version="1.1"
   id="svg8"
   inkscape:version="1.0.2-2 (e86c870879, 2021-01-15)"
   sodipodi:docname="gridwyre.svg">
  <defs
     id="defs2" />
  <sodipodi:namedview
     id="base"
     pagecolor="#ffffff"
     bordercolor="#666666"
     borderopacity="1.0"
     inkscape:pageopacity="0.0"
     inkscape:pageshadow="2"
     inkscape:zoom="0.49497475"
     inkscape:cx="233.17802"
     inkscape:cy="295.50014"
     inkscape:document-units="mm"
     inkscape:current-layer="layer1"
     inkscape:document-rotation="0"
     showgrid="false"
     inkscape:window-width="1267"
     inkscape:window-height="672"
     inkscape:window-x="1"
     inkscape:window-y="0"
     inkscape:window-maximized="0" />
  <metadata
     id="metadata5">
    <rdf:RDF>
      <cc:Work
         rdf:about="">
        <dc:format>image/svg+xml</dc:format>
        <dc:type
           rdf:resource="http://purl.org/dc/dcmitype/StillImage" />
        <dc:title></dc:title>
      </cc:Work>
    </rdf:RDF>
  </metadata>
  <g
     inkscape:label="Layer 1"
     inkscape:groupmode="layer"
     id="layer1"
     transform="translate(-2.3355006,-4.2487163)">
    <g
       id="g970"
       transform="matrix(1.454707,0,0,1.454707,-55.493807,-113.71454)">
      <path
         id="path871"
         style="fill:#169797;stroke:none;stroke-width:0.397644"
         d="m 632.73242,328.85156 c -1.66851,0.0305 -3.30774,0.17027 -4.84961,0.53516 -15.71486,3.71996 -12.72461,22.61917 -12.72461,34.65625 0,7.72142 -0.41651,15.17168 6.36328,20.40625 6.04022,4.66435 13.50232,3.84961 20.67579,3.84961 h 40.95898 v -0.002 l -0.39844,-10.73633 c -12.27919,1.61282 -25.39279,0.39843 -37.77539,0.39843 -4.60471,0 -11.08747,1.16275 -15.0957,-1.59765 -4.12358,-2.83998 -3.59375,-7.53865 -3.59375,-11.92188 h 41.75195 c 3.57086,0 7.15385,0.0833 10.7207,-0.0195 0.98616,-0.0302 2.9858,0.26966 3.78907,-0.4082 1.49113,-1.26372 0.60156,-6.50467 0.60156,-8.32031 0,-8.64832 0.80262,-17.84515 -7.1582,-23.54297 -4.60075,-3.29526 -9.73522,-3.09766 -15.11133,-3.09766 h -19.88086 c -2.62942,0 -5.49258,-0.25003 -8.27344,-0.19922 z m 28.03516,10.49805 c 2.67888,-0.0316 5.36152,0.0962 7.67578,1.63477 3.37599,2.24469 3.97259,5.7547 3.97656,9.5371 0,1.14324 0.33279,3.1188 -0.92383,3.73633 -3.06584,1.50905 -9.57839,0.24024 -12.99414,0.24024 h -12.72461 -19.48437 c 0,-4.26191 -0.95557,-9.69128 2.50391,-12.92969 2.59661,-2.42959 6.14125,-2.17969 9.42578,-2.17969 h 19.88086 c 0.87879,0 1.7711,-0.0285 2.66406,-0.0391 z"
         transform="scale(0.26458333)" />
      <path
         id="path857"
         style="fill:#169797;stroke:none;stroke-width:0.397644"
         d="m 371.75586,306.67578 c -0.84996,-10e-4 -1.7235,0.10105 -2.33984,0.10742 -1.24063,0.0113 -3.90573,-0.33864 -4.93164,0.42188 -1.01001,0.74993 -0.63672,2.86762 -0.63672,3.95117 v 11.13281 c 0,1.75321 0.75218,5.64747 -1.25196,6.52149 -2.64827,1.15593 -7.40829,0.23828 -10.27929,0.23828 h -20.2793 c -5.49147,0 -10.41115,-0.26983 -15.11133,3.09765 -9.8019,7.0184 -7.55469,20.62409 -7.55469,31.09961 0,4.78405 -0.47034,9.78725 1.39063,14.31641 1.68601,4.09371 4.62207,7.10399 8.55078,9.0918 5.40794,2.73501 12.42179,1.64453 18.29102,1.64453 h 36.98046 v -60.83985 -15.11132 c 0,-1.31819 0.53829,-4.2281 -0.63476,-5.15821 -0.51693,-0.40936 -1.3434,-0.51262 -2.19336,-0.51367 z m -12.83398,32.41016 c 1.9728,-0.0473 3.8615,0.11294 4.51562,0.93945 1.38777,1.752 0.41016,7.12883 0.41016,9.30273 v 18.68946 c 0,3.18829 0.51014,6.87282 -0.39649,9.9414 -8.27894,-0.49068 -16.74994,0 -25.05273,0 -3.70205,0 -7.94448,0.56983 -11.53125,-0.46484 -2.35801,-0.67918 -4.58531,-2.37806 -5.50781,-4.70508 -0.98219,-2.47215 -0.85352,-5.34778 -0.85352,-7.95312 0,-6.3758 -2.22074,-17.9491 2.65039,-22.91211 2.75169,-2.80218 6.47951,-2.53516 10.07422,-2.53516 h 20.67578 c 0.98617,0 3.04282,-0.25546 5.01563,-0.30273 z"
         transform="scale(0.26458333)" />
      <path
         style="fill:#169797;stroke:none;stroke-width:0.10521"
         d="m 148.66258,102.73708 h 2.94588 v -8.837607 c 0,-1.29356 -0.2262,-2.75682 0.94689,-3.63711 0.78065,-0.58517 1.82117,-0.46607 2.73545,-0.46607 h 5.68132 v -2.73546 h -6.20737 c -1.10681,0 -2.34407,-0.16328 -3.36671,0.34478 -2.57448,1.27872 -2.73546,3.74567 -2.73546,6.28344 v 9.048027"
         id="path869" />
      <path
         style="fill:#169797;stroke:none;stroke-width:0.10521"
         d="m 128.4623,87.060803 v 9.36367 c 0,2.11629 -0.0631,4.023537 1.79277,5.445017 1.28672,0.98592 2.88696,0.86756 4.4146,0.86756 h 8.31157 c 0,1.17909 0.13993,2.27022 -0.84588,3.12168 -1.01843,0.87892 -2.4335,0.66587 -3.67814,0.66587 h -8.10113 c 0,0.51132 -0.25987,2.07758 0.16834,2.41688 0.23988,0.18938 0.70595,0.10816 0.98897,0.10816 h 2.63024 c 2.37248,0 4.79441,0.13719 7.15426,-0.0873 1.46137,-0.13909 2.65234,-0.35876 3.64237,-1.59613 1.36877,-1.70987 0.98686,-4.17168 0.98686,-6.20727 V 87.060833 h -2.94587 v 8.6272 l 0.10521,4.20839 c -2.62814,0.487957 -5.63819,0.105207 -8.31157,0.105207 -1.02264,0 -2.31461,0.0441 -3.00163,-0.876287 -0.79223,-1.06094 -0.5755,-2.51493 -0.5755,-3.75294 v -8.31157 h -2.73546"
         id="path867" />
      <path
         style="fill:#169797;stroke:none;stroke-width:0.10521"
         d="m 101.31819,87.166053 c 1.19728,3.74421 2.61341,7.41803 3.84016,11.15224 0.34614,1.05662 0.73752,2.100077 1.08786,3.156287 0.10732,0.3232 0.21463,0.9411 0.4987,1.15436 0.44083,0.3293 3.17417,0.30563 3.50138,-0.13572 0.55866,-0.7532 0.70806,-2.13103 1.0279,-3.017627 0.91427,-2.53492 2.02107,-5.25196 2.56396,-7.89073 h 0.10521 c 0.89323,2.78395 1.89167,5.56402 2.89537,8.31157 0.22094,0.604317 0.53867,2.493777 1.13416,2.777217 0.66492,0.31605 1.97163,0.0649 2.70389,0.0634 0.26934,-3.9e-4 0.64704,0.053 0.84799,-0.16865 0.26934,-0.29648 0.33878,-0.92942 0.46713,-1.30428 0.40506,-1.17393 0.74489,-2.380057 1.07209,-3.577127 0.96898,-3.54494 2.44087,-7.02907 3.1889,-10.62619 -0.70595,0 -2.41561,-0.31552 -2.99216,0.10816 -0.53236,0.39159 -0.63862,1.90987 -0.83957,2.52208 -0.71964,2.18742 -1.23832,4.43754 -1.94638,6.62822 -0.25566,0.79339 -0.33457,1.93638 -0.95531,2.52503 l -1.14152,-3.47192 -2.85645,-8.31157 h -3.15629 l -2.84803,8.52199 -1.04473,3.15629 -1.20255,-3.2615 -2.79542,-8.41678 -3.15629,0.10521"
         id="path865" />
      <path
         style="fill:#169797;stroke:none;stroke-width:0.10521"
         d="m 76.383485,87.060803 v 11.36273 c 0,1.01696 0.005,2.034127 -1.1e-4,3.051087 -0.001,0.29511 -0.14603,0.83862 0.0284,1.09386 0.30974,0.45314 2.34303,0.20222 2.81237,0.0634 -0.24146,-3.750617 0,-7.601927 0,-11.362647 v -2.94587 c 0,-0.30616 0.096,-0.83621 -0.10816,-1.09386 -0.36381,-0.45925 -2.17658,-0.16866 -2.73251,-0.16866"
         id="path863" />
      <path
         id="path861"
         style="fill:#169797;stroke:none;stroke-width:0.397644"
         d="m 171.25391,328.86328 c -4.3977,-0.024 -8.77274,0.38702 -12.47852,2.74805 -3.19189,2.03312 -5.92433,5.32672 -7.06836,8.96875 -1.51302,4.81583 -1.28125,9.73279 -1.28125,14.71289 0,10.33232 -2.12671,24.15506 8.34961,30.35156 5.75747,3.40539 12.27745,2.65234 18.68945,2.65235 h 33.00391 c 0,3.36128 0.54206,7.04104 -1.50977,9.93945 -2.8193,3.98203 -7.56012,4.37695 -12.00976,4.37695 H 173.0918 c -2.51947,0 -9.72779,-1.2484 -11.67383,0.4082 -1.18141,1.00525 -0.32903,6.9835 -0.6543,8.73633 4.49613,1.07044 9.70811,0.39844 14.31641,0.39844 9.74902,0 19.72492,0.59273 29.42383,-0.33008 5.29738,-0.50419 10.34641,-1.78151 13.6914,-6.43555 4.84528,-6.74124 3.40821,-16.01719 3.40821,-23.85351 v -52.48828 h -42.54883 c -2.51663,0 -5.16217,-0.17115 -7.80078,-0.18555 z m 2.3125,10.25977 c 2.45028,0.0177 4.94115,0.26562 7.08007,0.26562 h 29.82227 v 27.83399 c 0,2.32459 1.06823,8.23547 -0.4082,10.09961 -0.84261,1.06407 -3.17829,0.63671 -4.36328,0.63671 h -11.92969 -19.08594 c -3.4464,-0.004 -7.42845,0.0711 -10.26562,-2.24218 -2.94256,-2.39978 -2.85743,-6.26699 -2.85743,-9.6875 0,-7.41207 -3.01672,-22.00692 5.16993,-25.79688 1.97748,-0.91536 4.3876,-1.12707 6.83789,-1.10937 z"
         transform="scale(0.26458333)" />
      <path
         style="fill:#169797;stroke:none;stroke-width:0.10521"
         d="m 76.278325,84.641183 c 0.7148,0 2.04981,0.26134 2.6898,-0.0634 0.45282,-0.22989 0.46019,-2.98691 0.0728,-3.30033 -0.33856,-0.27386 -2.41656,-0.26103 -2.64508,0.13572 -0.39822,0.69154 0.0393,2.38395 -0.11752,3.22805"
         id="path855" />
      <path
         style="fill:#169797;stroke:none;stroke-width:0.10521"
         d="m 61.4281,102.73709 h 2.94588 v -8.837607 c 0,-1.29356 -0.2262,-2.75682 0.94689,-3.63711 0.78065,-0.58517 1.82117,-0.46607 2.73545,-0.46607 h 5.68132 v -2.73546 h -6.20737 c -1.10681,0 -2.34407,-0.16328 -3.36671,0.34478 -2.57448,1.27872 -2.73546,3.74567 -2.73546,6.28344 v 9.048027"
         id="path869-7" />
    </g>
  </g>
</svg>
